<?xml version="1.0" encoding="UTF-8"?><svg id="Ebene_2" xmlns="http://www.w3.org/2000/svg" viewBox="0 0 121.5 85.16"><defs><style>.cls-1{fill:none;stroke:#00ffa3;stroke-miterlimit:10;stroke-width:1.5px;}</style></defs><g id="Ebene_1-2"><path class="cls-1" d="M120.41,11.76c-.35-2.42-2.13-7.45-5.54-6.61-3.75.89-4.58,7.36-6.71,9.79-5.38,6.77-13.38,5.1-19.41-.03-6.53-6.12-10.7-11.75-20.68-13.34-3.52-.56-8.25-.96-12.1-.76-3.51.15-6.27.38-10.8,3.09-6.63,3.98-10.61,9.64-18.96,8.02-2.92-.64-6.62-1.87-9.68-1.08-5.36,1.95-7.5,4.26-9.92,7.07C2.19,23.84.22,34.71.87,41.67c.51,13.34,3.89,36.84,18.42,42.16,8.94,3.3,10.46-8.21,11.35-14.33.69-5.04,2.15-19.36,10.55-17.4,7.31,1.77,11.92,14.16,16.86,19.1,5.78,5.87,13.26,9.74,18.39,1.24,3.99-6.57-.18-16.92,3.37-24.13,1.57-3.75,4.83-5.12,8.44-4.58,3.21.24,8.01.52,11.41-.32,6.87-1.34,12.73-4.02,16.43-10.2,2.32-3.51,4.04-6.23,4.48-10.53.2-3.56.34-7.46-.16-10.91ZM67.76,32.45c-2.64,0-4.79-2.14-4.79-4.79s2.14-4.79,4.79-4.79,4.79,2.14,4.79,4.79-2.14,4.79-4.79,4.79Z"/></g></svg>