<?xml version="1.0" encoding="UTF-8"?><svg id="Ebene_2" xmlns="http://www.w3.org/2000/svg" viewBox="0 0 202 87.16"><defs><style>.cls-1{fill:#00ffa3;stroke-width:0px;}.cls-2{fill:none;stroke:#00ffa3;stroke-linejoin:round;stroke-width:2px;}</style></defs><g id="Ebene_1-2"><g id="Layer_3"><path class="cls-2" d="M1.13,1c-2.62.92,35.91,29.9,49.16,37.76,32.52,19.26,61.64,24.81,63.34,26.97.92,1.23.46,3.08.46,4.47-4.47,0-43.92,10.48-47,12.02,2.31-1.08,50.7,7.55,78.44,2.16,25.89-5.09,46.55-29.47,55.48-29.28-.62-1.23-10.32-8.63-20.5-7.55-8.94,1.08-20.34,5.39-22.04,1.85-1.85-3.54-5.55-20.19-17.11-26.04C92.67-1.62,1.74,1.31,1.13,1Z"/></g><circle class="cls-1" cx="187.1" cy="52.93" r="1.5"/></g></svg>