<?xml version="1.0" encoding="UTF-8"?><svg id="Ebene_2" xmlns="http://www.w3.org/2000/svg" viewBox="0 0 102.17 90.43"><defs><style>.cls-1{fill:none;stroke:#00ffa3;stroke-miterlimit:10;stroke-width:1.5px;}</style></defs><g id="Ebene_1-2"><path class="cls-1" d="M21.07,60.88H1.42c15.91,23.4,33.22,28.8,55.54,28.8s44.46-19.91,44.46-44.46S81.51.75,56.95.75,7.5,26.72,21.07,60.88Z"/><path class="cls-1" d="M59.99,40.46c0,3.7-3,6.7-6.69,6.7s-6.69-3-6.69-6.7,3-6.69,6.69-6.69,6.69,3,6.69,6.69Z"/><path class="cls-1" d="M86.77,40.46c0,3.7-3,6.7-6.7,6.7s-6.69-3-6.69-6.7,3-6.69,6.69-6.69,6.7,3,6.7,6.69Z"/></g></svg>