<?xml version="1.0" encoding="UTF-8"?><svg id="Ebene_2" xmlns="http://www.w3.org/2000/svg" viewBox="0 0 202 138.99"><defs><style>.cls-1{fill:none;stroke:#00ffa3;stroke-miterlimit:10;stroke-width:2px;}</style></defs><g id="Ebene_1-2"><path class="cls-1" d="M136.02,67.61c-1,1.1-3.15.78-4.8-.72-1.65-1.5-2.18-3.61-1.18-4.71,1-1.1,3.15-.78,4.8.72,1.65,1.5,2.18,3.61,1.18,4.71Z"/><path class="cls-1" d="M113.65,50.35c-6.24-4.99-13.71-11.66-19.19-18-6.35-7.33-10.04-14.22-6.11-17.54,7-5.92,36.61,24.77,38.77,23.16,6.41-4.8-28-28.54-20.46-36.08,9.77-9.77,84.75,63.86,55.68,78.51-1.43.72-3.11,1.3-5.06,1.72-7.54,1.62-23.16-3.23-29.62-8.08"/><path class="cls-1" d="M93.72,32.58c-.07-.07-.17-.15-.27-.22-4.59-3.1-39.27-4.98-49.27,2.91-10.23,8.08-13.46,18.85-12.92,31.23.54,5.38,1.07,10.77-2.16,15.61-3.23,5.92-10.77,9.16-15.61,13.46-7,6.46-18.09,31.49-9.16,34.46,4.85,1.62,8.08-10.77,11.85-14.54,3.23-3.23,8.62-5.38,12.38-7.54,4.85-2.15,9.15-5.38,13.46-8.08.62-.39,1.41-.99,2.33-1.73,5.47-4.44,15.6-14.04,22.98-14.96,1.94-.24,4.98-.04,8.61.44,13.17,1.75,34.09,7.21,38.24,8.72,11.84,4.31,63.45,50.39,70.54,45.23,11.84-8.62-42-40.38-35.54-44.69,5.39-4.31,45.77,33.93,51.16,26.39,6.02-8.43-31.23-35-37.7-38.77"/><path class="cls-1" d="M44.41,97.83c-.02.11-.03.22-.05.33-.68,4.1-2.97,6.57-1.18,11.95,1.23,4.91,10.44,23.94,17.8,15.96,2.46-3.07-5.52-11.66-2.46-19.64,3.55-9.24,11.87-14.53,17.39-22.51"/></g></svg>