<?xml version="1.0" encoding="UTF-8"?><svg id="Ebene_2" xmlns="http://www.w3.org/2000/svg" viewBox="0 0 101.5 101.66"><defs><style>.cls-1{fill:none;stroke:#00ffa3;stroke-miterlimit:10;stroke-width:1.5px;}</style></defs><g id="Ebene_1-2"><path class="cls-1" d="M100.43,57.98c-.77-5.1-1.86-13.24-1.96-19.1-.17-9.65,1.22-16.8.43-20.99-1.38-7.29-15.1,10.58-19.55,20.18-1.34,2.89-16.98-4.97-19.81-7.93-6.57-6.86.24-28.47-5.08-29.37-5.31-.9-14.74,21.87-18.5,28.81C27.24,45.69,5.56,45.26,1.16,65.5c-6.89,31.73,75.21,53.67,95.04,14.15,2.93-5.83,5.46-13.54,4.23-21.66ZM27.55,71.89c-1.23-1.11-1.36-5.26-1.01-6.68.95-3.78,3.29-.46,3.74,1.95.46,2.41-1.19,6.13-2.74,4.73ZM34.03,53.37c-.35-.97-1.72-1.23-2.22-5.28-.43-3.51,3.47-6.44,4.12-7.92.44-1,7.9,11.01-1.12,15.55-.35.17-.34-1.12-.78-2.35ZM38.11,75.63c-4.45.74-3.06-1.92-2-2.46,2.98-1.51,6.73-3.53,8.1-1.88,1.92,2.32-3.65,3.93-6.1,4.34ZM73.78,63.56c-2.05,2.43-7.7,2.85-11.19,2.06-3.44-.78-6.2-.05-6.22-.27-.51-5.51,7.95-8.07,11.75-8.33,5.38-.35,8.16,3.55,5.65,6.54Z"/></g></svg>